<svg 
          width="19" 
          height="19" fill="none" 
          xmlns="http://www.w3.org/2000/svg">
          <path d="M 17.164771943422405 18.70270106600978 L 11.119318146720406 12.648647893364728 C 10.579545431146938 13.081080313468801 9.95880637068518 13.423422427232348 9.257101866178038 13.675674669608163 C 8.555397361670897 13.92792691198398 7.80871196912176 14.054053443960635 7.017045302455093 14.054053443960635 C 5.0558710424819635 14.054053443960635 3.396249956244773 13.373693581552365 2.038181786359835 12.01297295461151 C 0.6801136164748967 10.652252327670654 0.0007196969463898531 8.990269863502215 0 7.0270267219803175 C 0 5.063062783131377 0.6793939716838928 3.401080963337451 2.038181786359835 2.0410810048487353 C 3.396969601035777 0.6810810463600194 5.056590815964811 0.0007207206817148091 7.017045302455093 0 C 8.978219562428224 0 10.63784116343279 0.6803603779078793 11.995909333317728 2.0410810048487353 C 13.353977503202666 3.401801631789591 14.033370907963796 5.063783580458419 14.034090604910187 7.0270267219803175 C 14.034090604910187 7.819819497540904 13.908143227201577 8.567567015220371 13.65624929219486 9.270269661643422 C 13.404355357188141 9.972972308066472 13.062499517405586 10.594594340877862 12.630681338512218 11.13513485795327 L 18.703125418248494 17.216214644052407 C 18.90104208491516 17.414412837942553 19 17.65765728849431 19 17.945945579303267 C 19 18.234233870112224 18.8920442246609 18.486484855957745 18.676135135214217 18.70270106600978 C 18.47821846854755 18.900899259899926 18.226325772199832 19 17.920454568853064 19 C 17.614583365506295 19 17.362688610089073 18.900899259899926 17.164771943422405 18.70270106600978 Z M 7.017045302455093 11.891891375659 C 8.366477091388765 11.891891375659 9.51367376579645 11.418738513854786 10.458635840445522 10.47243227474675 C 11.403597915094595 9.526126035638713 11.875719439562703 8.3776573462167 11.874999742616312 7.0270267219803175 C 11.874999742616312 5.675675429291795 11.402518962675465 4.526846405643712 10.457556888026392 3.580540166535676 C 9.51259481337732 2.63423392742764 8.365757446597762 2.1614413476199212 7.017045302455093 2.1621620683016363 C 5.667613513521422 2.1621620683016363 4.520416324346362 2.6353154456054586 3.5754542496972896 3.5816216847134945 C 2.6304921750482175 4.52792792382153 2.158371165347485 5.676396097743935 2.159090862293875 7.0270267219803175 C 2.159090862293875 8.37837801466884 2.631572157002099 9.527206522817316 3.5765342316511712 10.473512761925353 C 4.521496306300244 11.419819001033389 5.668333158312425 11.892612096340715 7.017045302455093 11.891891375659 Z" fill="rgb(0,0,0)"/>
        </svg>