<svg 
          width="16" 
          height="18.004901885986328" fill="none" 
          xmlns="http://www.w3.org/2000/svg">
          <path d="M 5 2.002450466156006 C 4.734783500432968 2.002450466156006 4.480429783463478 2.1078075021505356 4.292893409729004 2.2953438758850098 C 4.10535703599453 2.482880249619484 3.999999999999999 2.737233966588974 4 3.002450466156006 C 3.999999999999999 3.2676669657230377 4.10535703599453 3.5220206826925278 4.292893409729004 3.709557056427002 C 4.480429783463478 3.897093430161476 4.734783500432968 4.002450466156006 5 4.002450466156006 C 5.265216499567032 4.002450466156006 5.519570216536522 3.897093430161476 5.707106590270996 3.709557056427002 C 5.89464296400547 3.5220206826925278 6 3.2676669657230377 6 3.002450466156006 C 6 2.737233966588974 5.89464296400547 2.482880249619484 5.707106590270996 2.2953438758850098 C 5.519570216536522 2.1078075021505356 5.265216499567032 2.002450466156006 5 2.002450466156006 Z M 2.1700000762939453 2.002450466156006 C 2.376602053642273 1.4169175028800964 2.7597391605377197 0.9098841547966003 3.266599655151367 0.5512399673461914 C 3.7734601497650146 0.19259577989578247 4.379086792469025 0 5 0 C 5.620913207530975 0 6.226539850234985 0.19259577989578247 6.733400344848633 0.5512399673461914 C 7.24026083946228 0.9098841547966003 7.623397946357727 1.4169175028800964 7.829999923706055 2.002450466156006 L 15 2.002450466156006 C 15.265216499567032 2.002450466156006 15.519571170210838 2.1078075021505356 15.707107543945312 2.2953438758850098 C 15.894643917679787 2.482880249619484 16 2.737233966588974 16 3.002450466156006 C 16 3.2676669657230377 15.894643917679787 3.5220206826925278 15.707107543945312 3.709557056427002 C 15.519571170210838 3.897093430161476 15.265216499567032 4.002450466156006 15 4.002450466156006 L 7.829999923706055 4.002450466156006 C 7.623397946357727 4.587983429431915 7.24026083946228 5.09501725435257 6.733400344848633 5.4536614418029785 C 6.226539850234985 5.8123056292533875 5.620913207530975 6.00490140914917 5 6.00490140914917 C 4.379086792469025 6.00490140914917 3.7734601497650146 5.8123056292533875 3.266599655151367 5.4536614418029785 C 2.7597391605377197 5.09501725435257 2.376602053642273 4.587983429431915 2.1700000762939453 4.002450466156006 L 1 4.002450466156006 C 0.7347835004329681 4.002450466156006 0.4804297834634781 3.897093430161476 0.2928934097290039 3.709557056427002 C 0.10535703599452972 3.5220206826925278 0 3.2676669657230377 0 3.002450466156006 C 0 2.737233966588974 0.10535703599452972 2.482880249619484 0.2928934097290039 2.2953438758850098 C 0.4804297834634781 2.1078075021505356 0.7347835004329681 2.002450466156005 1 2.002450466156006 L 2.1700000762939453 2.002450466156006 Z M 11 8.002450942993164 C 10.734783500432968 8.002450942993164 10.480429783463478 8.107807025313377 10.292893409729004 8.295343399047852 C 10.10535703599453 8.482879772782326 10 8.737234443426132 10 9.002450942993164 C 10 9.267667442560196 10.10535703599453 9.52202020585537 10.292893409729004 9.709556579589844 C 10.480429783463478 9.897092953324318 10.734783500432968 10.002450942993164 11 10.002450942993164 C 11.265216499567032 10.002450942993164 11.519570216536522 9.897092953324318 11.707106590270996 9.709556579589844 C 11.89464296400547 9.52202020585537 12 9.267667442560196 12 9.002450942993164 C 12 8.737234443426132 11.89464296400547 8.482879772782326 11.707106590270996 8.295343399047852 C 11.519570216536522 8.107807025313377 11.265216499567032 8.002450942993164 11 8.002450942993164 Z M 8.170000076293945 8.002450942993164 C 8.376602053642273 7.416917979717255 8.75973916053772 6.909883677959442 9.266599655151367 6.551239490509033 C 9.773460149765015 6.192595303058624 10.379086792469025 5.999999523162842 11 5.999999523162842 C 11.620913207530975 5.999999523162842 12.226539850234985 6.192595303058624 12.733400344848633 6.551239490509033 C 13.24026083946228 6.909883677959442 13.623397946357727 7.416917979717255 13.829999923706055 8.002450942993164 L 15 8.002450942993164 C 15.265216499567032 8.002450942993164 15.519571170210838 8.107807025313377 15.707107543945312 8.295343399047852 C 15.894643917679787 8.482879772782326 16 8.737234443426132 16 9.002450942993164 C 16 9.267667442560196 15.894643917679787 9.52202020585537 15.707107543945312 9.709556579589844 C 15.519571170210838 9.897092953324318 15.265216499567032 10.002450942993164 15 10.002450942993164 L 13.829999923706055 10.002450942993164 C 13.623397946357727 10.587983906269073 13.24026083946228 11.095016777515411 12.733400344848633 11.45366096496582 C 12.226539850234985 11.81230515241623 11.620913207530975 12.004901885986328 11 12.004901885986328 C 10.379086792469025 12.004901885986328 9.773460149765015 11.81230515241623 9.266599655151367 11.45366096496582 C 8.75973916053772 11.095016777515411 8.376602053642273 10.587983906269073 8.170000076293945 10.002450942993164 L 1 10.002450942993164 C 0.7347835004329681 10.002450942993164 0.4804297834634781 9.897092953324318 0.2928934097290039 9.709556579589844 C 0.10535703599452972 9.52202020585537 0 9.267667442560196 0 9.002450942993164 C 0 8.737234443426132 0.10535703599452972 8.482879772782326 0.2928934097290039 8.295343399047852 C 0.4804297834634781 8.107807025313377 0.7347835004329681 8.002450942993164 1 8.002450942993164 L 8.170000076293945 8.002450942993164 Z M 5 14.002450942993164 C 4.734783500432968 14.002450942993164 4.480429783463478 14.107807025313377 4.292893409729004 14.295343399047852 C 4.10535703599453 14.482879772782326 3.999999999999999 14.737234443426132 4 15.002450942993164 C 3.999999999999999 15.267667442560196 4.10535703599453 15.522022113204002 4.292893409729004 15.709558486938477 C 4.480429783463478 15.89709486067295 4.734783500432968 16.002450942993164 5 16.002450942993164 C 5.265216499567032 16.002450942993164 5.519570216536522 15.89709486067295 5.707106590270996 15.709558486938477 C 5.89464296400547 15.522022113204002 6 15.267667442560196 6 15.002450942993164 C 6 14.737234443426132 5.89464296400547 14.482879772782326 5.707106590270996 14.295343399047852 C 5.519570216536522 14.107807025313377 5.265216499567032 14.002450942993164 5 14.002450942993164 Z M 2.1700000762939453 14.002450942993164 C 2.376602053642273 13.416917979717255 2.7597391605377197 12.909883201122284 3.266599655151367 12.551239013671875 C 3.7734601497650146 12.192594826221466 4.379086792469025 12 5 12 C 5.620913207530975 12 6.226539850234985 12.192594826221466 6.733400344848633 12.551239013671875 C 7.24026083946228 12.909883201122284 7.623397946357727 13.416917979717255 7.829999923706055 14.002450942993164 L 15 14.002450942993164 C 15.265216499567032 14.002450942993164 15.519571170210838 14.107807025313377 15.707107543945312 14.295343399047852 C 15.894643917679787 14.482879772782326 16 14.737234443426132 16 15.002450942993164 C 16 15.267667442560196 15.894643917679787 15.522022113204002 15.707107543945312 15.709558486938477 C 15.519571170210838 15.89709486067295 15.265216499567032 16.002450942993164 15 16.002450942993164 L 7.829999923706055 16.002450942993164 C 7.623397946357727 16.587983906269073 7.24026083946228 17.09501677751541 6.733400344848633 17.45366096496582 C 6.226539850234985 17.81230515241623 5.620913207530975 18.004901885986328 5 18.004901885986328 C 4.379086792469025 18.004901885986328 3.7734601497650146 17.81230515241623 3.266599655151367 17.45366096496582 C 2.7597391605377197 17.09501677751541 2.376602053642273 16.587983906269073 2.1700000762939453 16.002450942993164 L 1 16.002450942993164 C 0.7347835004329681 16.002450942993164 0.4804297834634781 15.89709486067295 0.2928934097290039 15.709558486938477 C 0.10535703599452972 15.522022113204002 0 15.267667442560196 0 15.002450942993164 C 0 14.737234443426132 0.10535703599452972 14.482879772782326 0.2928934097290039 14.295343399047852 C 0.4804297834634781 14.107807025313377 0.7347835004329681 14.002450942993164 1 14.002450942993164 L 2.1700000762939453 14.002450942993164 Z" fill="rgb(0,0,0)"/>
        </svg>